<svg width="274" height="45" viewBox="0 0 274 45" fill="none" xmlns="http://www.w3.org/2000/svg">
<path d="M0.046875 34V11.3125H3.04688L3.11719 14.5H3.1875C4.01562 13.3594 5.00781 12.4688 6.16406 11.8281C7.32031 11.1719 8.63281 10.8438 10.1016 10.8438C11.6484 10.8438 12.9688 11.1719 14.0625 11.8281C15.1562 12.4688 15.9453 13.4688 16.4297 14.8281H16.5C17.3594 13.4844 18.4062 12.4844 19.6406 11.8281C20.875 11.1719 22.2812 10.8438 23.8594 10.8438C26.0312 10.8438 27.7578 11.4766 29.0391 12.7422C30.3203 14.0078 30.9609 16.1328 30.9609 19.1172V34H27.7031V19.0703C27.7031 17.0703 27.2891 15.6719 26.4609 14.875C25.6484 14.0781 24.4844 13.6797 22.9688 13.6797C21.6406 13.6797 20.4844 14.0625 19.5 14.8281C18.5312 15.5938 17.7422 16.5859 17.1328 17.8047V34H13.875V19.0703C13.875 17.0703 13.4609 15.6719 12.6328 14.875C11.8047 14.0781 10.6328 13.6797 9.11719 13.6797C7.80469 13.6797 6.65625 14.0703 5.67188 14.8516C4.70312 15.6172 3.90625 16.6016 3.28125 17.8047V34H0.046875ZM35.3672 23.0078V22.2578C35.3672 18.8359 36.3125 16.0625 38.2031 13.9375C40.0938 11.8125 42.6094 10.75 45.75 10.75C48.9062 10.75 51.4219 11.8125 53.2969 13.9375C55.1875 16.0625 56.1328 18.8359 56.1328 22.2578V23.0078C56.1328 26.4609 55.1875 29.25 53.2969 31.375C51.4219 33.5 48.9062 34.5625 45.75 34.5625C42.5938 34.5625 40.0703 33.5 38.1797 31.375C36.3047 29.25 35.3672 26.4609 35.3672 23.0078ZM38.6953 22.2812V23.0078C38.6953 25.5234 39.2891 27.6172 40.4766 29.2891C41.6797 30.9453 43.4375 31.7734 45.75 31.7734C48.0781 31.7734 49.8359 30.9453 51.0234 29.2891C52.2109 27.6172 52.8047 25.5234 52.8047 23.0078V22.2812C52.8047 19.75 52.2109 17.6641 51.0234 16.0234C49.8359 14.3828 48.0781 13.5625 45.75 13.5625C43.4375 13.5625 41.6797 14.3828 40.4766 16.0234C39.2891 17.6641 38.6953 19.75 38.6953 22.2812ZM60.75 34V11.3125H63.75L63.8203 14.4531H63.8906C64.6719 13.2812 65.6797 12.3906 66.9141 11.7812C68.1484 11.1562 69.5234 10.8438 71.0391 10.8438C73.2578 10.8438 75.0234 11.4766 76.3359 12.7422C77.6484 14.0078 78.3047 16.1328 78.3047 19.1172V34H75.0703V19.2344C75.0703 17.2344 74.6328 15.8125 73.7578 14.9688C72.8828 14.1094 71.6484 13.6797 70.0547 13.6797C68.6953 13.6797 67.4844 14.0625 66.4219 14.8281C65.375 15.5781 64.5625 16.5625 63.9844 17.7812V34H60.75ZM82.7109 23.0078V22.2578C82.7109 18.8359 83.6172 16.0625 85.4297 13.9375C87.2422 11.8125 89.6328 10.75 92.6016 10.75C95.5859 10.75 97.8672 11.7344 99.4453 13.7031C101.039 15.6719 101.836 18.4062 101.836 21.9062V23.2188H84.6094V20.5469H98.5547V20.2188C98.5547 18.4531 98.0859 16.8984 97.1484 15.5547C96.2266 14.1953 94.7344 13.5156 92.6719 13.5156C90.4531 13.5156 88.7812 14.3359 87.6562 15.9766C86.5469 17.6016 85.9922 19.6953 85.9922 22.2578V23.0078C85.9922 25.5703 86.5859 27.6797 87.7734 29.3359C88.9609 30.9766 90.7188 31.7969 93.0469 31.7969C94.5781 31.7969 95.8828 31.4844 96.9609 30.8594C98.0391 30.2188 98.8906 29.4219 99.5156 28.4688L101.648 30.3438C100.992 31.3906 99.9375 32.3594 98.4844 33.25C97.0469 34.125 95.2422 34.5625 93.0703 34.5625C89.7578 34.5625 87.2031 33.5078 85.4062 31.3984C83.6094 29.2734 82.7109 26.4766 82.7109 23.0078ZM103.992 43.75V40.9609C104.383 41.0859 104.797 41.1797 105.234 41.2422C105.688 41.3203 106.141 41.3594 106.594 41.3594C107.656 41.3594 108.57 40.8281 109.336 39.7656C110.102 38.7031 110.938 36.8047 111.844 34.0703V34.0469L103.219 11.3125H106.523L112.383 27.3438C112.602 27.9375 112.789 28.4688 112.945 28.9375C113.102 29.4062 113.234 29.8516 113.344 30.2734H113.484C113.609 29.8516 113.75 29.4062 113.906 28.9375C114.062 28.4531 114.242 27.9062 114.445 27.2969L120.234 11.3125H123.422L113.695 37.2812C112.852 39.5781 111.914 41.3047 110.883 42.4609C109.852 43.6328 108.492 44.2188 106.805 44.2188C106.211 44.2188 105.695 44.1719 105.258 44.0781C104.82 44 104.398 43.8906 103.992 43.75ZM123.539 16.7734V11.2656H139.195V16.7734H123.539ZM127.031 27.0156V12.9062L127.172 12.4844V4.60938H134.531V25.6797C134.531 27.0859 134.734 28.0078 135.141 28.4453C135.547 28.8672 136.164 29.0781 136.992 29.0781C137.383 29.0781 137.758 29.0469 138.117 28.9844C138.492 28.9219 138.852 28.8203 139.195 28.6797V33.9062C138.773 34.0625 138.148 34.2109 137.32 34.3516C136.508 34.4922 135.523 34.5625 134.367 34.5625C132.055 34.5625 130.25 33.9688 128.953 32.7812C127.672 31.5781 127.031 29.6562 127.031 27.0156ZM142.336 34V11.2656H149.883L149.953 14.1484H150C150.578 13.1797 151.336 12.375 152.273 11.7344C153.211 11.0938 154.281 10.7734 155.484 10.7734C155.906 10.7734 156.305 10.8125 156.68 10.8906C157.07 10.9531 157.344 11.0156 157.5 11.0781V16.9844C157.219 16.8906 156.883 16.8203 156.492 16.7734C156.117 16.7109 155.703 16.6797 155.25 16.6797C154.203 16.6797 153.211 17 152.273 17.6406C151.336 18.2812 150.609 19.125 150.094 20.1719V34H142.336ZM158.672 22.9609V22.2109C158.672 18.6953 159.812 15.8828 162.094 13.7734C164.375 11.6484 167.391 10.5859 171.141 10.5859C174.891 10.5859 177.898 11.6484 180.164 13.7734C182.445 15.8828 183.586 18.6953 183.586 22.2109V22.9609C183.586 26.4922 182.445 29.3203 180.164 31.4453C177.898 33.5547 174.891 34.6094 171.141 34.6094C167.391 34.6094 164.375 33.5547 162.094 31.4453C159.812 29.3203 158.672 26.4922 158.672 22.9609ZM166.406 21.9062V23.2656C166.406 25.0938 166.805 26.5312 167.602 27.5781C168.414 28.625 169.586 29.1484 171.117 29.1484C172.664 29.1484 173.836 28.625 174.633 27.5781C175.445 26.5312 175.852 25.0859 175.852 23.2422V21.9062C175.852 20.0938 175.445 18.6719 174.633 17.6406C173.82 16.6094 172.648 16.0938 171.117 16.0938C169.602 16.0938 168.438 16.6094 167.625 17.6406C166.812 18.6719 166.406 20.0938 166.406 21.9062ZM187.195 34V11.2656H194.625L194.672 14.1719H194.766C195.344 13.1406 196.242 12.3125 197.461 11.6875C198.695 11.0469 200.156 10.7266 201.844 10.7266C204.188 10.7266 206.086 11.3828 207.539 12.6953C208.992 13.9922 209.719 16.1953 209.719 19.3047V34H202.102V20.125C202.102 18.7969 201.812 17.8516 201.234 17.2891C200.672 16.7266 199.875 16.4453 198.844 16.4453C197.953 16.4453 197.148 16.7031 196.43 17.2188C195.727 17.7344 195.188 18.4297 194.812 19.3047V34H187.195ZM214.312 34V11.2656H222.023V34H214.312ZM213.82 3.95312C213.82 2.84375 214.195 1.91406 214.945 1.16406C215.711 0.398437 216.789 0.015625 218.18 0.015625C219.586 0.015625 220.656 0.390625 221.391 1.14062C222.141 1.89062 222.516 2.82812 222.516 3.95312C222.516 5.0625 222.133 6.00781 221.367 6.78906C220.617 7.55469 219.539 7.9375 218.133 7.9375C216.758 7.9375 215.695 7.55469 214.945 6.78906C214.195 6.00781 213.82 5.0625 213.82 3.95312ZM225.703 22.9609V22.2109C225.703 18.6016 226.797 15.7656 228.984 13.7031C231.172 11.625 234.109 10.5859 237.797 10.5859C241.391 10.5859 244.148 11.3984 246.07 13.0234C248.008 14.6328 249.039 16.8047 249.164 19.5391L249.188 20.0078H241.805V19.7031C241.805 18.5938 241.477 17.7109 240.82 17.0547C240.18 16.3828 239.219 16.0469 237.938 16.0469C236.469 16.0469 235.352 16.5625 234.586 17.5938C233.82 18.6094 233.438 20.0469 233.438 21.9062V23.2656C233.438 25.0938 233.812 26.5391 234.562 27.6016C235.312 28.6641 236.43 29.1953 237.914 29.1953C239.273 29.1953 240.258 28.8594 240.867 28.1875C241.492 27.5 241.812 26.625 241.828 25.5625V25.2578H249.188V25.7031C249.141 28.375 248.133 30.5312 246.164 32.1719C244.211 33.7969 241.43 34.6094 237.82 34.6094C234.148 34.6094 231.211 33.5703 229.008 31.4922C226.805 29.3984 225.703 26.5547 225.703 22.9609ZM251.508 26.6875L258.445 26.7578V27.2031C258.445 28.2656 258.797 29.0156 259.5 29.4531C260.203 29.8906 261.148 30.1094 262.336 30.1094C263.508 30.1094 264.375 29.9219 264.938 29.5469C265.5 29.1562 265.781 28.5938 265.781 27.8594C265.781 27.1562 265.43 26.6172 264.727 26.2422C264.023 25.8672 262.57 25.4688 260.367 25.0469C257.477 24.4844 255.375 23.6172 254.062 22.4453C252.75 21.2734 252.094 19.6953 252.094 17.7109C252.094 15.4297 253.016 13.6719 254.859 12.4375C256.703 11.2031 259.242 10.5859 262.477 10.5859C265.68 10.5859 268.203 11.2266 270.047 12.5078C271.906 13.7891 272.828 15.5938 272.812 17.9219V18.3203H265.875V17.875C265.875 16.9688 265.578 16.3047 264.984 15.8828C264.391 15.4453 263.508 15.2266 262.336 15.2266C261.289 15.2266 260.523 15.3984 260.039 15.7422C259.555 16.0703 259.312 16.5547 259.312 17.1953C259.312 17.7891 259.664 18.2734 260.367 18.6484C261.086 19.0078 262.555 19.3984 264.773 19.8203C267.773 20.3672 269.953 21.2031 271.312 22.3281C272.672 23.4375 273.352 24.9766 273.352 26.9453C273.352 29.4453 272.422 31.3516 270.562 32.6641C268.719 33.9609 266.023 34.6094 262.477 34.6094C259.008 34.6094 256.32 33.9609 254.414 32.6641C252.523 31.3516 251.555 29.4844 251.508 27.0625V26.6875Z" fill="black"/>
</svg>
